<?xml version="1.0" encoding="utf-8"?>
<!-- Generator: Adobe Illustrator 24.0.0, SVG Export Plug-In . SVG Version: 6.00 Build 0)  -->
<svg version="1.1" id="Ebene_1" xmlns="http://www.w3.org/2000/svg" xmlns:xlink="http://www.w3.org/1999/xlink" x="0px" y="0px"
	 viewBox="0 0 1200 1200" style="enable-background:new 0 0 1200 1200;" xml:space="preserve">
<style type="text/css">
	.st0{opacity:0.8;}
	.st1{clip-path:url(#SVGID_2_);fill:#FFFFFF;}
	.st2{clip-path:url(#SVGID_4_);fill:none;}
	.st3{fill:none;stroke:#000000;stroke-width:2;}
	.st4{fill:none;stroke:#000000;stroke-width:0.75;}
	.st5{fill:none;stroke:#F1F1F1;stroke-width:2;}
	.st6{fill:#FFFFFF;stroke:#FF0D0D;stroke-width:2;stroke-miterlimit:10;}
</style>
<g>
	<g class="st0">
		<g>
			<g>
				<defs>
					<rect id="SVGID_1_" x="205" y="210.1" width="778" height="768"/>
				</defs>
				<clipPath id="SVGID_2_">
					<use xlink:href="#SVGID_1_"  style="overflow:visible;"/>
				</clipPath>
				<path class="st1" d="M594,977.1c209.9,0,380-170.1,380-380s-170.1-380-380-380s-380,170.1-380,380S384.1,977.1,594,977.1"/>
			</g>
		</g>
	</g>
	<g class="st0">
		<g>
			<g>
				<defs>
					<rect id="SVGID_3_" x="186.8" y="191.9" width="814.3" height="804.2"/>
				</defs>
				<clipPath id="SVGID_4_">
					<use xlink:href="#SVGID_3_"  style="overflow:visible;"/>
				</clipPath>
				<circle class="st2" cx="594" cy="597.1" r="397.8"/>
			</g>
		</g>
	</g>
</g>
<line class="st3" x1="594" y1="198.9" x2="594" y2="187.1"/>
<line class="st3" x1="594" y1="1007.1" x2="594" y2="995.2"/>
<line class="st3" x1="195.8" y1="597.1" x2="184" y2="597.1"/>
<line class="st3" x1="1004.1" y1="597.1" x2="992.2" y2="597.1"/>
<line class="st4" x1="524.8" y1="205" x2="522.8" y2="193.3"/>
<line class="st4" x1="665.2" y1="1000.8" x2="663.2" y2="989.1"/>
<line class="st4" x1="457.9" y1="222.9" x2="453.8" y2="211.8"/>
<line class="st4" x1="734.3" y1="982.3" x2="730.2" y2="971.2"/>
<line class="st4" x1="394.9" y1="252.3" x2="389" y2="242"/>
<line class="st4" x1="799.1" y1="952.1" x2="793.1" y2="941.8"/>
<line class="st4" x1="338" y1="292.1" x2="330.5" y2="283"/>
<line class="st4" x1="857.6" y1="911.1" x2="849.9" y2="902"/>
<line class="st4" x1="289" y1="341.1" x2="280" y2="333.5"/>
<line class="st4" x1="908.1" y1="860.6" x2="898.9" y2="853"/>
<line class="st4" x1="249.3" y1="398" x2="238.9" y2="392.1"/>
<line class="st4" x1="949.1" y1="802.1" x2="938.8" y2="796.1"/>
<line class="st4" x1="219.8" y1="460.9" x2="208.8" y2="456.8"/>
<line class="st4" x1="979.3" y1="737.3" x2="968.2" y2="733.2"/>
<line class="st4" x1="201.9" y1="527.9" x2="190.3" y2="525.9"/>
<line class="st4" x1="997.8" y1="668.2" x2="986.1" y2="666.2"/>
<line class="st4" x1="663.2" y1="205" x2="665.2" y2="193.3"/>
<line class="st4" x1="522.8" y1="1000.8" x2="524.8" y2="989.1"/>
<line class="st4" x1="730.2" y1="222.9" x2="734.3" y2="211.8"/>
<line class="st4" x1="453.8" y1="982.3" x2="457.9" y2="971.2"/>
<line class="st4" x1="793.1" y1="252.3" x2="799.1" y2="242"/>
<line class="st4" x1="389" y1="952.1" x2="394.9" y2="941.8"/>
<line class="st4" x1="849.9" y1="292.1" x2="857.6" y2="283"/>
<line class="st4" x1="330.5" y1="911.1" x2="338" y2="902"/>
<line class="st4" x1="898.9" y1="341.1" x2="908.1" y2="333.5"/>
<line class="st4" x1="280" y1="860.6" x2="289" y2="853"/>
<line class="st4" x1="938.8" y1="398" x2="949.1" y2="392.1"/>
<line class="st4" x1="238.9" y1="802.1" x2="249.3" y2="796.1"/>
<line class="st4" x1="968.2" y1="460.9" x2="979.3" y2="456.8"/>
<line class="st4" x1="208.8" y1="737.3" x2="219.8" y2="733.2"/>
<line class="st4" x1="986.1" y1="527.9" x2="997.8" y2="525.9"/>
<line class="st4" x1="190.3" y1="668.2" x2="201.9" y2="666.2"/>
<circle class="st4" cx="594" cy="597.1" r="459"/>
<path class="st5" d="M568.9,118.2c-113.3,5.8-216.2,51-295.4,122.1"/>
<path class="st5" d="M914.6,240.4C835.3,169.3,732.4,124,619.2,118.2"/>
<path class="st5" d="M238.1,275.7c-71.6,79.2-117.1,182.4-123,296"/>
<path class="st5" d="M1072.8,571.9c-5.9-113.7-51.4-217-122.9-296.2"/>
<path class="st5" d="M115.1,622.1C121,736,166.6,839.4,238.3,918.7"/>
<path class="st5" d="M273.5,953.7c79.1,71.2,182.1,116.4,295.5,122.2"/>
<path class="st5" d="M619.2,1075.9c113.2-5.8,216.1-51,295.2-122"/>
<path class="st5" d="M949.8,918.5c71.6-79.3,117.2-182.6,123-296.3"/>
<line class="st5" x1="426.1" y1="191.8" x2="410.4" y2="153.9"/>
<line class="st5" x1="188.8" y1="429.2" x2="150.8" y2="413.5"/>
<line class="st5" x1="188.3" y1="765.1" x2="150.8" y2="780.6"/>
<line class="st5" x1="426" y1="1002.4" x2="410.4" y2="1040.4"/>
<path class="st6" d="M-102.3,897.6c84.4-38.9,168.8-77.8,253.2-116.8"/>
<path class="st6" d="M298.3-101.8c37.4,85.1,74.9,170.2,112.3,255.2"/>
<path class="st6" d="M410.7,1039.3c-41.1,83.4-82.2,166.7-123.3,250.1"/>
<path class="st6" d="M149.5,413.5c-85.4-36.7-170.8-73.4-256.2-110.1"/>
</svg>
