<?xml version="1.0" encoding="utf-8"?>
<!-- Generator: Adobe Illustrator 23.1.1, SVG Export Plug-In . SVG Version: 6.00 Build 0)  -->
<svg version="1.1" id="Ebene_1" xmlns="http://www.w3.org/2000/svg" xmlns:xlink="http://www.w3.org/1999/xlink" x="0px" y="0px"
	 viewBox="0 0 208.4 204" style="enable-background:new 0 0 208.4 204;" xml:space="preserve">
<style type="text/css">
	.st0{fill:none;stroke:#FFFFFF;stroke-width:2;}
	.st1{clip-path:url(#SVGID_2_);fill:none;stroke:#FFFFFF;stroke-width:2;}
	.st2{fill:none;stroke:#FFFFFF;stroke-width:2;stroke-linejoin:round;}
	.st3{clip-path:url(#SVGID_4_);fill:none;stroke:#FFFFFF;stroke-width:2;}
	.st4{clip-path:url(#SVGID_6_);fill:none;stroke:#FFFFFF;stroke-width:2;}
	.st5{opacity:0.8;}
	.st6{clip-path:url(#SVGID_8_);fill:#FFFFFF;}
	.st7{clip-path:url(#SVGID_10_);fill:none;stroke:#FFFFFF;stroke-width:0.75;}
	.st8{fill:none;stroke:#FFFFFF;stroke-width:0.75;}
	.st9{clip-path:url(#SVGID_12_);fill:#FFFFFF;}
	.st10{clip-path:url(#SVGID_14_);fill:#FFFFFF;}
	.st11{clip-path:url(#SVGID_16_);fill:none;stroke:#FFFFFF;stroke-width:0.75;}
	.st12{clip-path:url(#SVGID_18_);fill:#FFFFFF;}
	.st13{clip-path:url(#SVGID_20_);fill:none;stroke:#FFFFFF;stroke-width:0.75;}
	.st14{fill:none;stroke:#FFFFFF;}
	.st15{clip-path:url(#SVGID_22_);fill:#FFFFFF;}
	.st16{clip-path:url(#SVGID_24_);fill:none;stroke:#FFFFFF;stroke-width:0.75;}
</style>
<g>
	<g>
		<path class="st0" d="M101.8,102.6l-19.8-5.8c-4.9,2-10.2,3-15.7,3c-5.3,0-10.3-1-15-2.8l-37.9,11.1L1,141.1v36h53.5h25.4h21.7"/>
	</g>
	<polyline class="st0" points="28,139.1 28,177.1 102,177.1 	"/>
	<line class="st0" x1="67" y1="100.6" x2="67" y2="177.9"/>
	<polyline class="st0" points="66.4,99.7 49.8,115.7 43.8,100.6 	"/>
	<polyline class="st0" points="68,99.7 84.5,115.7 91.5,99.6 	"/>
	<g>
		<path class="st0" d="M41.6,45.2c-0.9,3.3-1.4,6.8-1.4,10.4c0,17.9,11.9,32.5,26.7,32.5s26.7-14.6,26.7-32.5
			c0-3.5-0.5-6.9-1.3-10.1"/>
		<path class="st0" d="M97.6,37.6h-3c0.2-1.2,0.3-2.4,0.3-3.7c0-13.6-9.7-24.9-22.6-27.5V1.1H61.3v5.3C48.4,9,38.7,20.4,38.7,34
			c0,1.3,0.1,2.5,0.3,3.7h-3v6.6h4.4c1.7,1.8,3.4,2.8,6.1,5h40.6c3-2.2,4.7-3.2,6.1-5h4.4V37.6z"/>
	</g>
	<line class="st0" x1="48.1" y1="40" x2="85.5" y2="40"/>
	<g>
		<line class="st0" x1="61.3" y1="15" x2="61.3" y2="0"/>
		<line class="st0" x1="72.4" y1="15" x2="72.4" y2="0"/>
		<path class="st0" d="M207.4,77.2V188c0,8.3-6.7,15-15,15h-90.8V77.2H179"/>
		<path class="st0" d="M179.4,182.2c0-7.7,6.3-14,14-14c7.7,0,14,6.3,14,14v6"/>
		<path class="st0" d="M179.4,182.2V77.3c0-7.7,6.3-14,14-14c7.7,0,14,6.3,14,14"/>
	</g>
	<polyline class="st0" points="179.4,116.1 124.4,116.1 124.4,164.1 134.2,164.1 	"/>
	<line class="st0" x1="146.4" y1="164.1" x2="179.4" y2="164.1"/>
	<line class="st0" x1="146.4" y1="140.5" x2="179.4" y2="140.5"/>
</g>
</svg>
