<?xml version="1.0" encoding="utf-8"?>
<!-- Generator: Adobe Illustrator 23.1.1, SVG Export Plug-In . SVG Version: 6.00 Build 0)  -->
<svg version="1.1" id="Ebene_1" xmlns="http://www.w3.org/2000/svg" xmlns:xlink="http://www.w3.org/1999/xlink" x="0px" y="0px"
	 viewBox="0 0 208.3 195.1" style="enable-background:new 0 0 208.3 195.1;" xml:space="preserve">
<style type="text/css">
	.st0{fill:none;stroke:#757576;stroke-width:2;}
	.st1{clip-path:url(#SVGID_2_);fill:none;stroke:#757576;stroke-width:2;}
	.st2{fill:none;stroke:#757576;stroke-width:2;stroke-linejoin:round;}
	.st3{clip-path:url(#SVGID_4_);fill:none;stroke:#757576;stroke-width:2;}
	.st4{clip-path:url(#SVGID_6_);fill:none;stroke:#757576;stroke-width:2;}
	.st5{opacity:0.8;}
	.st6{clip-path:url(#SVGID_8_);fill:#757576;}
	.st7{clip-path:url(#SVGID_10_);fill:none;stroke:#757576;stroke-width:0.75;}
	.st8{fill:none;stroke:#757576;stroke-width:0.75;}
	.st9{clip-path:url(#SVGID_12_);fill:#757576;}
	.st10{clip-path:url(#SVGID_14_);fill:#757576;}
	.st11{clip-path:url(#SVGID_16_);fill:none;stroke:#757576;stroke-width:0.75;}
	.st12{clip-path:url(#SVGID_18_);fill:#757576;}
	.st13{clip-path:url(#SVGID_20_);fill:none;stroke:#757576;stroke-width:0.75;}
	.st14{fill:none;stroke:#757576;}
	.st15{clip-path:url(#SVGID_22_);fill:#757576;}
	.st16{clip-path:url(#SVGID_24_);fill:none;stroke:#757576;stroke-width:0.75;}
</style>
<g>
	<g>
		<defs>
			<path id="SVGID_5_" d="M66.4,81.7c-5.3,0-10.3-1-15-2.8L13.4,90L1,123v36h53.5h25.4H90l15.1-73.6l-23-6.7
				C77.2,80.6,71.9,81.7,66.4,81.7"/>
		</defs>
		<clipPath id="SVGID_2_">
			<use xlink:href="#SVGID_5_"  style="overflow:visible;"/>
		</clipPath>
		<polygon class="st1" points="50.5,78.5 66.4,181.7 82.5,78.5 		"/>
	</g>
	<g>
		<path class="st0" d="M105.1,85.4l-23-6.7c-4.9,2-10.2,3-15.7,3c-5.3,0-10.3-1-15-2.8L13.4,90L1,123v36h53.5h25.4H90"/>
		<path class="st0" d="M67.2,70C84.2,70,98,54.5,98,35.5S84.2,1,67.2,1S36.4,16.4,36.4,35.5S50.2,70,67.2,70z"/>
	</g>
	<polyline class="st0" points="28,121 28,159 89.3,159 	"/>
	<line class="st0" x1="96.5" y1="83.2" x2="98.5" y2="90.9"/>
	<polyline class="st0" points="36.4,83.2 30.4,107.2 45.4,111.2 38.4,118.2 61.4,159.4 	"/>
	<line class="st0" x1="83.8" y1="138.1" x2="71.5" y2="159.4"/>
	<g>
		<path class="st0" d="M145.3,194.1c34.2,0,61.9-27.7,61.9-61.9s-27.7-61.9-61.9-61.9S83.4,98,83.4,132.2S111.1,194.1,145.3,194.1z"
			/>
		<path class="st0" d="M147.2,139.9l25.3-25.4L172,98.8l-12.6,2.6l-25.3,25.4c-5.9-1.4-12.5,0.3-17.1,5c-7.1,7.2-7.3,18.6-0.3,25.6
			c7,7,18.5,6.9,25.6-0.3C146.9,152.4,148.6,145.8,147.2,139.9z"/>
	</g>
	<line class="st0" x1="165.4" y1="106" x2="139.6" y2="131.9"/>
	<g>
		<circle class="st0" cx="126.3" cy="147.6" r="4.5"/>
	</g>
</g>
</svg>
