<?xml version="1.0" encoding="utf-8"?>
<!-- Generator: Adobe Illustrator 23.1.1, SVG Export Plug-In . SVG Version: 6.00 Build 0)  -->
<svg version="1.1" id="Ebene_1" xmlns="http://www.w3.org/2000/svg" xmlns:xlink="http://www.w3.org/1999/xlink" x="0px" y="0px"
	 viewBox="0 0 193.7 213.2" style="enable-background:new 0 0 193.7 213.2;" xml:space="preserve">
<style type="text/css">
	.st0{fill:none;stroke:#757576;stroke-width:2;}
	.st1{clip-path:url(#SVGID_2_);fill:none;stroke:#757576;stroke-width:2;}
	.st2{fill:none;stroke:#757576;stroke-width:2;stroke-linejoin:round;}
	.st3{clip-path:url(#SVGID_4_);fill:none;stroke:#757576;stroke-width:2;}
	.st4{clip-path:url(#SVGID_6_);fill:none;stroke:#757576;stroke-width:2;}
	.st5{opacity:0.8;}
	.st6{clip-path:url(#SVGID_8_);fill:#757576;}
	.st7{clip-path:url(#SVGID_10_);fill:none;stroke:#757576;stroke-width:0.75;}
	.st8{fill:none;stroke:#757576;stroke-width:0.75;}
	.st9{clip-path:url(#SVGID_12_);fill:#757576;}
	.st10{clip-path:url(#SVGID_14_);fill:#757576;}
	.st11{clip-path:url(#SVGID_16_);fill:none;stroke:#757576;stroke-width:0.75;}
	.st12{clip-path:url(#SVGID_18_);fill:#757576;}
	.st13{clip-path:url(#SVGID_20_);fill:none;stroke:#757576;stroke-width:0.75;}
	.st14{fill:none;stroke:#757576;}
	.st15{clip-path:url(#SVGID_22_);fill:#757576;}
	.st16{clip-path:url(#SVGID_24_);fill:none;stroke:#757576;stroke-width:0.75;}
</style>
<g>
	<g>
		<defs>
			<path id="SVGID_1_" d="M66.4,99.8c-5.3,0-10.3-1-15-2.8l-37.9,11.1L1,141.1v36h53.5H75l19.1-76.8l-12-3.5
				C77.2,98.8,71.9,99.8,66.4,99.8"/>
		</defs>
		<clipPath id="SVGID_2_">
			<use xlink:href="#SVGID_1_"  style="overflow:visible;"/>
		</clipPath>
		<polyline class="st1" points="27.7,103.9 27.7,137.3 27.7,146.3 27.7,177.1 71.2,177.1 		"/>
		<polyline class="st1" points="70.5,137.3 41.3,137.3 41.3,97.3 27.7,97.3 27.7,103.9 		"/>
	</g>
	<g>
		<path class="st0" d="M94.1,100.3l-12-3.5c-4.9,2-10.2,3-15.7,3c-5.3,0-10.3-1-15-2.8l-37.9,11.1L1,141.1v36h53.5H75"/>
		<path class="st0" d="M41.1,45.2c-0.9,3.3-1.4,6.7-1.4,10.4c0,17.9,11.9,32.5,26.7,32.5S93,73.5,93,55.6c0-3.6-0.5-7-1.4-10.3"/>
		<path class="st0" d="M97.1,37.6h-3c0.2-1.2,0.3-2.4,0.3-3.7c0-13.6-9.7-24.9-22.6-27.5V1.1H60.8v5.3C47.9,9,38.2,20.4,38.2,34
			c0,1.3,0.1,2.5,0.3,3.7h-3v6.6h4.4c1.7,1.8,3.4,2.8,6.1,5h40.6c3-2.2,4.7-3.2,6.1-5h4.4V37.6z"/>
	</g>
	<line class="st0" x1="47.6" y1="40" x2="85" y2="40"/>
	<g>
		<line class="st0" x1="60.8" y1="15" x2="60.8" y2="0"/>
		<line class="st0" x1="71.9" y1="15" x2="71.9" y2="0"/>
		<path class="st0" d="M130.8,212.2c34.2,0,61.9-27.7,61.9-61.9c0-34.2-27.7-61.9-61.9-61.9s-61.9,27.7-61.9,61.9
			C68.9,184.5,96.6,212.2,130.8,212.2z"/>
	</g>
	<polygon class="st0" points="128.3,107.6 152.6,107.6 136.3,136.1 154,136.1 107.8,193.5 122.3,153.5 106.9,153.5 	"/>
	<line class="st0" x1="71.2" y1="177.1" x2="75.3" y2="177.1"/>
</g>
</svg>
