<?xml version="1.0" encoding="utf-8"?>
<!-- Generator: Adobe Illustrator 23.1.1, SVG Export Plug-In . SVG Version: 6.00 Build 0)  -->
<svg version="1.1" id="Ebene_1" xmlns="http://www.w3.org/2000/svg" xmlns:xlink="http://www.w3.org/1999/xlink" x="0px" y="0px"
	 viewBox="0 0 206.6 203.8" style="enable-background:new 0 0 206.6 203.8;" xml:space="preserve">
<style type="text/css">
	.st0{fill:none;stroke:#FFFFFF;stroke-width:2;}
	.st1{clip-path:url(#SVGID_2_);fill:none;stroke:#FFFFFF;stroke-width:2;}
	.st2{fill:none;stroke:#FFFFFF;stroke-width:2;stroke-linejoin:round;}
	.st3{clip-path:url(#SVGID_4_);fill:none;stroke:#FFFFFF;stroke-width:2;}
	.st4{clip-path:url(#SVGID_6_);fill:none;stroke:#FFFFFF;stroke-width:2;}
	.st5{opacity:0.8;}
	.st6{clip-path:url(#SVGID_8_);fill:#FFFFFF;}
	.st7{clip-path:url(#SVGID_10_);fill:none;stroke:#FFFFFF;stroke-width:0.75;}
	.st8{fill:none;stroke:#FFFFFF;stroke-width:0.75;}
	.st9{clip-path:url(#SVGID_12_);fill:#FFFFFF;}
	.st10{clip-path:url(#SVGID_14_);fill:#FFFFFF;}
	.st11{clip-path:url(#SVGID_16_);fill:none;stroke:#FFFFFF;stroke-width:0.75;}
	.st12{clip-path:url(#SVGID_18_);fill:#FFFFFF;}
	.st13{clip-path:url(#SVGID_20_);fill:none;stroke:#FFFFFF;stroke-width:0.75;}
	.st14{fill:none;stroke:#FFFFFF;}
	.st15{clip-path:url(#SVGID_22_);fill:#FFFFFF;}
	.st16{clip-path:url(#SVGID_24_);fill:none;stroke:#FFFFFF;stroke-width:0.75;}
</style>
<g>
	<g>
		<path class="st0" d="M100.5,101.9l-18.4-5.4c-4.9,2-10.2,3-15.7,3c-5.3,0-10.3-1-15-2.8l-37.9,11.1L1,140.9v36h53.5h25.4h20.1"/>
		<path class="st0" d="M41.9,45c-0.9,3.2-1.4,6.7-1.4,10.3c0,17.9,11.9,32.5,26.7,32.5s26.7-14.5,26.7-32.5c0-3.5-0.4-6.8-1.3-9.9"
			/>
	</g>
	<polyline class="st0" points="28,138.9 28,176.9 99.9,176.9 	"/>
	<line class="st0" x1="66.5" y1="100.4" x2="66.5" y2="177.6"/>
	<line class="st0" x1="80.5" y1="128.1" x2="96" y2="128.1"/>
	<g>
		<rect x="100.1" y="77.3" class="st0" width="105.5" height="125.5"/>
	</g>
	<polyline class="st0" points="176.7,99.6 122.9,99.6 122.9,151.1 	"/>
	<g>
		<path class="st0" d="M182.4,105.6c3.4,0,6.1-2.7,6.1-6.1c0-3.4-2.7-6.1-6.1-6.1c-3.4,0-6.1,2.7-6.1,6.1
			C176.3,102.8,179.1,105.6,182.4,105.6z"/>
		<path class="st0" d="M123.2,162.9c3.4,0,6.1-2.7,6.1-6.1c0-3.4-2.7-6.1-6.1-6.1c-3.4,0-6.1,2.7-6.1,6.1
			C117.1,160.2,119.8,162.9,123.2,162.9z"/>
	</g>
	<polyline class="st0" points="128.9,180.4 182.7,180.4 182.7,129 	"/>
	<g>
		<path class="st0" d="M123.2,174.5c-3.4,0-6.1,2.7-6.1,6.1c0,3.4,2.7,6.1,6.1,6.1c3.4,0,6.1-2.7,6.1-6.1
			C129.3,177.2,126.6,174.5,123.2,174.5z"/>
		<path class="st0" d="M182.4,117.1c-3.4,0-6.1,2.7-6.1,6.1c0,3.4,2.7,6.1,6.1,6.1c3.4,0,6.1-2.7,6.1-6.1
			C188.5,119.9,185.8,117.1,182.4,117.1z"/>
		<path class="st2" d="M40.9,34.6L36,46.2c7.8-1.6,21.8-2.4,31.6-2.4c9.6,0,23.6,0.9,31.2,2.4l-4.9-11.6"/>
	</g>
	<g>
		<defs>
			<path id="SVGID_3_" d="M40.8,27.3v7.2c7.7-2.1,16.8-3.3,26.6-3.3c9.7,0,18.8,1.2,26.5,3.3l-0.1-7.2c0-13-11.9-23.5-26.5-23.5
				C52.7,3.8,40.8,14.3,40.8,27.3"/>
		</defs>
		<clipPath id="SVGID_2_">
			<use xlink:href="#SVGID_3_"  style="overflow:visible;"/>
		</clipPath>
		<path class="st1" d="M76.9,35.7l0-7.8c0-14.1-4.2-25.6-9.5-25.6s-9.5,11.4-9.5,25.6v7.8c2.8-2.3,6-3.6,9.5-3.6
			C70.9,32.2,74.1,33.5,76.9,35.7z"/>
	</g>
	<g>
		<path class="st0" d="M93.9,34.5l-0.1-7.2c0-13-11.9-23.5-26.5-23.5S40.8,14.3,40.8,27.3v7.2c7.7-2.1,16.8-3.3,26.6-3.3
			C77.1,31.2,86.2,32.4,93.9,34.5z"/>
		<path class="st0" d="M70.6,3.8c0-1.5-1.4-2.8-3.2-2.8c-1.8,0-3.2,1.2-3.2,2.8"/>
	</g>
</g>
</svg>
